{"title":"Unfriended.2014.WEBRiP.XViD.AC3.5.1.ReLeNTLesS","uid":12167613,"size":1065278424,"categoryP":"video","categoryS":"movies","magnet":"?xt=urn:btih:b831fc89a794afd809b5dd2be5b11838f03a6204&amp;dn=Unfriended.2014.WEBRiP.XViD.AC3.5.1.ReLeNTLesS&amp;tr=udp%3A%2F%2Ftracker.openbittorrent.com%3A80&amp;tr=udp%3A%2F%2Fopen.demonii.com%3A1337&amp;tr=udp%3A%2F%2Ftracker.coppersurfer.tk%3A6969&amp;tr=udp%3A%2F%2Fexodus.desync.com%3A6969","seeders":0,"leechers":1,"uploader":"TvTeam","files":4,"time":1438077129,"description":"------------------------------------------------------------------------\n\n &lt;a href=&quot; https://www.torrenting.com&quot; rel=&quot;nofollow&quot; target=&quot;_NEW&quot;&gt; https://www.torrenting.com&lt;/a&gt;\n\nSign up is OPEN - for time being. Come and have fun\n\n.......................................................................................................................P0STER\n[img]http://i.imgur.com/g1Dy71s.gif[/img]\n\niMDB: http://www.imdb.com/title/tt3713166/\n\nGeneral\nComplete name               : Unfriended.2014.WEBRiP.XViD.AC3.5.1.ReLeNTLesS.avi\nFormat                      : AVI\nFormat/Info                 : Audio Video Interleave\nFile size                   : 1 005 MiB\nDuration                    : 1h 22mn\nOverall bit rate            : 1 703 Kbps\n\nVideo\nID                          : 0\nFormat                      : MPEG-4 Visual\nFormat profile              : Advanced Simple@L5\nFormat settings, BVOP       : 1\nFormat settings, QPel       : No\nFormat settings, GMC        : No warppoints\nFormat settings, Matrix     : Default (H.263)\nMuxing mode                 : Packed bitstream\nCodec ID                    : XVID\nCodec ID/Hint               : XviD\nDuration                    : 1h 22mn\nBit rate                    : 1 503 Kbps\nWidth                       : 720 pixels\nHeight                      : 400 pixels\nDisplay aspect ratio        : 16:9\nFrame rate                  : 23.976 fps\nColor space                 : YUV\nChroma subsampling          : 4:2:0\nBit depth                   : 8 bits\nScan type                   : Progressive\nCompression mode            : Lossy\nBits/(Pixel*Frame)          : 0.218\nStream size                 : 887 MiB (88%)\nWriting library             : XviD 1.2.1 (UTC 2008-12-04)\n\nAudio\nID                          : 1\nFormat                      : AC-3\nFormat/Info                 : Audio Coding 3\nMode extension              : CM (complete main)\nFormat settings, Endianness : Big\nCodec ID                    : 2000\nDuration                    : 1h 22mn\nBit rate mode               : Constant\nBit rate                    : 192 Kbps\nChannel(s)                  : 6 channels\nChannel positions           : Front: L C R, Side: L R, LFE\nSampling rate               : 48.0 KHz\nCompression mode            : Lossy\nStream size                 : 113 MiB (11%)\nAlignment                   : Aligned on interleaves\nInterleave, duration        : 64 ms (1.53 video frames)\nInterleave, preload duratio : 192 ms\nTitle                       : Unfriended.2014.ReLeNTLesS.Audio.AC3.5.1.English_new\nSample Included             : Yes\nSource                      : PLAYNOW Thanks\n\nPL0T\nA group of online chat room friends find themselves haunted by a mysterious, supernatural force using the account of their dead friend.\n\nCAST\nDirector: Levan Gabriadze (as Leo Gabriadze)\nWriter: Nelson Greaves\nStars: Heather Sossaman, Matthew Bohrer, Courtney Halverson\n\nSCREENS\n[img]http://i.imgur.com/Qs8nCsT.png[/img]\n[img]http://i.imgur.com/JiCgfCd.png[/img]\n[img]http://i.imgur.com/7O6OS17.png[/img]\n[img]http://i.imgur.com/qkJ2W9o.png[/img]\n[img]http://i.imgur.com/5vgYVEJ.png[/img]\n[img]http://i.imgur.com/F80JYti.png[/img]\n\nTRAiLER\n\n\nGREETZ\n\n\nHIVE-CM8, Blackjesus, M0RPH, M00SE, MiLLENiUM,\n\nMANiX, TiTAN, Anonymous, TuX, \n\nACAB, KingStoner, FooKas, 4PlayHD, \n\nGodFather, Cld.... \n\nKeep up the good work guyz","torrent":{"xt":"urn:btih:b831fc89a794afd809b5dd2be5b11838f03a6204","amp;dn":"Unfriended.2014.WEBRiP.XViD.AC3.5.1.ReLeNTLesS","amp;tr":["udp%3A%2F%2Ftracker.openbittorrent.com%3A80","udp%3A%2F%2Fopen.demonii.com%3A1337","udp%3A%2F%2Ftracker.coppersurfer.tk%3A6969","udp%3A%2F%2Fexodus.desync.com%3A6969"],"infoHash":"b831fc89a794afd809b5dd2be5b11838f03a6204","infoHashBuffer":{"type":"Buffer","data":[184,49,252,137,167,148,175,216,9,181,221,43,229,177,24,56,240,58,98,4]},"announce":[],"urlList":[]}}